<svg width="64" height="64" viewBox="0 0 64 64" fill="none" xmlns="http://www.w3.org/2000/svg">
<path fill-rule="evenodd" clip-rule="evenodd" d="M9.23874 9.23849C5.3335 13.1437 5.3335 19.4291 5.3335 31.9999C5.3335 44.5707 5.3335 50.8561 9.23874 54.7613C13.144 58.6666 19.4294 58.6666 32.0002 58.6666C44.5709 58.6666 50.8563 58.6666 54.7616 54.7613C58.6668 50.8561 58.6668 44.5707 58.6668 31.9999C58.6668 19.4291 58.6668 13.1437 54.7616 9.23849C50.8563 5.33325 44.5709 5.33325 32.0002 5.33325C19.4294 5.33325 13.144 5.33325 9.23874 9.23849ZM17.1304 25.3863C17.8376 24.5377 19.0987 24.4231 19.9472 25.1302L20.6844 25.7445C22.2976 27.0886 23.6709 28.233 24.6214 29.2855C25.6309 30.4035 26.4187 31.6891 26.4187 33.3333C26.4187 34.9775 25.6309 36.2632 24.6214 37.3811C23.6709 38.4336 22.2976 39.5779 20.6844 40.9221L19.9472 41.5364C19.0987 42.2435 17.8376 42.1289 17.1304 41.2803C16.4233 40.4318 16.538 39.1707 17.3865 38.4635L18.0116 37.9426C19.7678 36.4792 20.9161 35.5159 21.6526 34.7003C22.3521 33.9257 22.4187 33.5626 22.4187 33.3333C22.4187 33.104 22.3521 32.7409 21.6526 31.9663C20.9161 31.1507 19.7678 30.1875 18.0116 28.724L17.3865 28.2031C16.538 27.4959 16.4233 26.2348 17.1304 25.3863ZM47.3335 40C47.3335 41.1045 46.4381 42 45.3335 42H32.0002C30.8956 42 30.0002 41.1045 30.0002 40C30.0002 38.8954 30.8956 38 32.0002 38H45.3335C46.4381 38 47.3335 38.8954 47.3335 40Z" fill="#005B7F"/>
</svg>
