<svg width="65" height="64" viewBox="0 0 65 64" fill="none" xmlns="http://www.w3.org/2000/svg">
<path fill-rule="evenodd" clip-rule="evenodd" d="M38.7433 5.73923C37.7558 5.33325 36.5038 5.33325 33.9998 5.33325C31.4959 5.33325 30.2439 5.33325 29.2563 5.73923C27.9396 6.28053 26.8934 7.31879 26.348 8.62561C26.099 9.22216 26.0016 9.91592 25.9634 10.9279C25.9074 12.4151 25.1389 13.7916 23.8403 14.5357C22.5416 15.2798 20.9562 15.252 19.6305 14.5566C18.7283 14.0834 18.0742 13.8202 17.4291 13.736C16.0161 13.5513 14.587 13.9314 13.4563 14.7925C12.6082 15.4383 11.9822 16.5143 10.7302 18.6664C9.47827 20.8185 8.85229 21.8945 8.71276 22.9463C8.52673 24.3487 8.90965 25.767 9.7773 26.8892C10.1733 27.4014 10.7299 27.832 11.5937 28.3707C12.8636 29.1625 13.6807 30.5115 13.6806 32C13.6805 33.4883 12.8635 34.8371 11.5937 35.6288C10.7297 36.1676 10.1731 36.5982 9.77703 37.1105C8.90939 38.2327 8.52647 39.6509 8.7125 41.0533C8.85202 42.1051 9.47801 43.1812 10.73 45.3333C11.982 47.4853 12.6079 48.5614 13.456 49.2072C14.5867 50.0683 16.0158 50.4483 17.4289 50.2637C18.0739 50.1794 18.728 49.9163 19.6301 49.4431C20.9559 48.7477 22.5414 48.7199 23.8402 49.464C25.1389 50.2082 25.9074 51.5848 25.9634 53.0721C26.0016 54.084 26.099 54.7777 26.348 55.3742C26.8934 56.6811 27.9396 57.7193 29.2563 58.2606C30.2439 58.6666 31.4959 58.6666 33.9998 58.6666C36.5038 58.6666 37.7558 58.6666 38.7433 58.2606C40.0601 57.7193 41.1063 56.6811 41.6517 55.3742C41.9007 54.7777 41.9981 54.0839 42.0362 53.0719C42.0923 51.5847 42.8607 50.2082 44.1592 49.464C45.458 48.7198 47.0436 48.7475 48.3694 49.443C49.2715 49.9161 49.9255 50.1792 50.5705 50.2635C51.9836 50.4481 53.4127 50.0681 54.5434 49.207C55.3915 48.5612 56.0175 47.4852 57.2694 45.3331C58.5214 43.181 59.1474 42.1049 59.2869 41.0531C59.4729 39.6508 59.09 38.2325 58.2224 37.1103C57.8263 36.598 57.2697 36.1674 56.4058 35.6287C55.136 34.8369 54.319 33.488 54.3191 31.9997C54.3191 30.5115 55.1361 29.1628 56.4058 28.3711C57.2699 27.8323 57.8266 27.4017 58.2226 26.8894C59.0903 25.7672 59.4732 24.3489 59.2872 22.9465C59.1477 21.8947 58.5217 20.8187 57.2697 18.6666C56.0177 16.5145 55.3917 15.4384 54.5437 14.7926C53.413 13.9315 51.9839 13.5515 50.5708 13.7361C49.9258 13.8204 49.2717 14.0835 48.3696 14.5567C47.0438 15.2522 45.4582 15.28 44.1595 14.5358C42.8608 13.7917 42.0923 12.415 42.0362 10.9278C41.9981 9.91586 41.9007 9.22213 41.6517 8.62561C41.1063 7.31879 40.0601 6.28053 38.7433 5.73923ZM33.9998 39.9999C38.4518 39.9999 42.0608 36.4182 42.0608 31.9999C42.0608 27.5816 38.4518 23.9999 33.9998 23.9999C29.5479 23.9999 25.9389 27.5816 25.9389 31.9999C25.9389 36.4182 29.5479 39.9999 33.9998 39.9999Z" fill="#009FA3"/>
</svg>
