<svg width="65" height="64" viewBox="0 0 65 64" fill="none" xmlns="http://www.w3.org/2000/svg">
<path fill-rule="evenodd" clip-rule="evenodd" d="M21.4184 11.3485C20.5356 7.89031 17.3997 5.33325 13.6665 5.33325C9.24823 5.33325 5.6665 8.91497 5.6665 13.3333C5.6665 17.0664 8.22356 20.2024 11.6817 21.0851C11.6717 21.1664 11.6665 21.2492 11.6665 21.3333V42.6666C11.6665 42.7506 11.6717 42.8334 11.6818 42.9147C8.22356 43.7975 5.6665 46.9334 5.6665 50.6666C5.6665 55.0849 9.24823 58.6666 13.6665 58.6666C17.3997 58.6666 20.5356 56.1095 21.4184 52.6513C21.4997 52.6614 21.5825 52.6666 21.6665 52.6666H42.9998C43.0839 52.6666 43.1667 52.6614 43.248 52.6513C44.1307 56.1095 47.2667 58.6666 50.9998 58.6666C55.4181 58.6666 58.9998 55.0849 58.9998 50.6666C58.9998 46.9334 56.4428 43.7975 52.9846 42.9147C52.9947 42.8334 52.9998 42.7506 52.9998 42.6666V21.3333C52.9998 21.2492 52.9947 21.1664 52.9846 21.0851C56.4428 20.2024 58.9998 17.0664 58.9998 13.3333C58.9998 8.91497 55.4181 5.33325 50.9998 5.33325C47.2667 5.33325 44.1307 7.89031 43.248 11.3485C43.1667 11.3384 43.0839 11.3333 42.9998 11.3333H21.6665C21.5825 11.3333 21.4997 11.3384 21.4184 11.3485ZM15.6513 21.0851C15.6613 21.1664 15.6665 21.2492 15.6665 21.3333L15.6665 42.6666C15.6665 42.7506 15.6613 42.8334 15.6513 42.9147C18.4748 43.6355 20.6976 45.8583 21.4184 48.6818C21.4997 48.6718 21.5825 48.6666 21.6665 48.6666H42.9998C43.0839 48.6666 43.1667 48.6718 43.248 48.6818C43.9687 45.8583 46.1915 43.6355 49.0151 42.9147C49.005 42.8334 48.9998 42.7506 48.9998 42.6666V21.3333C48.9998 21.2492 49.005 21.1664 49.0151 21.0851C46.1915 20.3644 43.9687 18.1415 43.248 15.318C43.1667 15.3281 43.0839 15.3333 42.9998 15.3333H21.6665C21.5825 15.3333 21.4997 15.3281 21.4184 15.318C20.6976 18.1415 18.4748 20.3644 15.6513 21.0851Z" fill="#009FA3"/>
</svg>
