<svg width="114" height="98" viewBox="0 0 114 98" fill="none" xmlns="http://www.w3.org/2000/svg">
<rect x="34.813" y="10.7708" width="79.1871" height="78.4" rx="24" fill="url(#paint0_linear_29220_319062)" fill-opacity="0.8"/>
<g filter="url(#filter0_b_29220_319062)">
<rect width="98.9839" height="98" rx="24" fill="white" fill-opacity="0.5"/>
<rect x="1" y="1" width="96.9839" height="96" rx="23" stroke="url(#paint1_linear_29220_319062)" stroke-opacity="0.6" stroke-width="2"/>
</g>
<path fill-rule="evenodd" clip-rule="evenodd" d="M46.5 30H50.5C54.2712 30 56.1569 30 57.3284 31.1716C58.5 32.3431 58.5 34.2288 58.5 38V68.5H67.5H68.5C69.3284 68.5 70 69.1716 70 70C70 70.8284 69.3284 71.5 68.5 71.5H28.5C27.6716 71.5 27 70.8284 27 70C27 69.1716 27.6716 68.5 28.5 68.5H35.5H38.5V38C38.5 34.2288 38.5 32.3431 39.6716 31.1716C40.8431 30 42.7288 30 46.5 30ZM43 50C43 49.1716 43.6716 48.5 44.5 48.5H52.5C53.3284 48.5 54 49.1716 54 50C54 50.8284 53.3284 51.5 52.5 51.5H44.5C43.6716 51.5 43 50.8284 43 50ZM43 56C43 55.1716 43.6716 54.5 44.5 54.5H52.5C53.3284 54.5 54 55.1716 54 56C54 56.8284 53.3284 57.5 52.5 57.5H44.5C43.6716 57.5 43 56.8284 43 56ZM48.5 62.5C49.3284 62.5 50 63.1716 50 64V68.5H47V64C47 63.1716 47.6716 62.5 48.5 62.5ZM43.5 40C43.5 36.9624 45.9624 34.5 49 34.5C52.0376 34.5 54.5 36.9624 54.5 40C54.5 43.0376 52.0376 45.5 49 45.5C45.9624 45.5 43.5 43.0376 43.5 40Z" fill="#005B7F"/>
<path opacity="0.5" d="M46.5 40C46.5 38.6193 47.6193 37.5 49 37.5C50.3807 37.5 51.5 38.6193 51.5 40C51.5 41.3807 50.3807 42.5 49 42.5C47.6193 42.5 46.5 41.3807 46.5 40Z" fill="#005B7F"/>
<path opacity="0.5" d="M66.8259 37.7776C67.5 38.7865 67.5 40.191 67.5 42.9999V68.4999H68.5C69.3284 68.4999 70 69.1715 70 69.9999C70 70.8283 69.3284 71.4999 68.5 71.4999H28.5C27.6716 71.4999 27 70.8283 27 69.9999C27 69.1715 27.6716 68.4999 28.5 68.4999H29.5V42.9999C29.5 40.191 29.5 38.7865 30.1741 37.7776C30.466 37.3409 30.841 36.9659 31.2777 36.674C32.1602 36.0844 36.3512 36.0105 38.514 36.0012C38.5058 36.584 38.5059 37.193 38.506 37.8209L38.506 37.9999V40.4999H33.5C32.6716 40.4999 32 41.1715 32 41.9999C32 42.8283 32.6716 43.4999 33.5 43.4999H38.506V46.4999H33.5C32.6716 46.4999 32 47.1715 32 47.9999C32 48.8283 32.6716 49.4999 33.5 49.4999H38.506V52.4999H33.5C32.6716 52.4999 32 53.1715 32 53.9999C32 54.8283 32.6716 55.4999 33.5 55.4999H38.506V68.4999H58.5059V55.4999H63.5C64.3284 55.4999 65 54.8283 65 53.9999C65 53.1715 64.3284 52.4999 63.5 52.4999H58.5059V49.4999H63.5C64.3284 49.4999 65 48.8283 65 47.9999C65 47.1715 64.3284 46.4999 63.5 46.4999H58.5059V43.4999H63.5C64.3284 43.4999 65 42.8283 65 41.9999C65 41.1715 64.3284 40.4999 63.5 40.4999H58.5059V37.9999L58.5059 37.8209V37.8209C58.506 37.193 58.506 36.584 58.4978 36.0012C60.6606 36.0105 64.8398 36.0844 65.7223 36.674C66.159 36.9659 66.534 37.3409 66.8259 37.7776Z" fill="#005B7F"/>
<defs>
<filter id="filter0_b_29220_319062" x="-21.0763" y="-21.0763" width="141.137" height="140.153" filterUnits="userSpaceOnUse" color-interpolation-filters="sRGB">
<feFlood flood-opacity="0" result="BackgroundImageFix"/>
<feGaussianBlur in="BackgroundImageFix" stdDeviation="10.5382"/>
<feComposite in2="SourceAlpha" operator="in" result="effect1_backgroundBlur_29220_319062"/>
<feBlend mode="normal" in="SourceGraphic" in2="effect1_backgroundBlur_29220_319062" result="shape"/>
</filter>
<linearGradient id="paint0_linear_29220_319062" x1="173.5" y1="95.5" x2="5.99999" y2="11" gradientUnits="userSpaceOnUse">
<stop stop-color="#005B7F"/>
<stop offset="1" stop-color="#005B7F" stop-opacity="0"/>
</linearGradient>
<linearGradient id="paint1_linear_29220_319062" x1="38.9772" y1="46.9" x2="98.1341" y2="111.458" gradientUnits="userSpaceOnUse">
<stop stop-color="white"/>
<stop offset="1" stop-color="#F3F3F3" stop-opacity="0.42"/>
</linearGradient>
</defs>
</svg>
