<svg width="114" height="98" viewBox="0 0 114 98" fill="none" xmlns="http://www.w3.org/2000/svg">
<rect x="34.813" y="10.7708" width="79.1871" height="78.4" rx="24" fill="url(#paint0_linear_29220_324839)" fill-opacity="0.5"/>
<g filter="url(#filter0_b_29220_324839)">
<rect width="98.9839" height="98" rx="24" fill="white" fill-opacity="0.5"/>
<rect x="1" y="1" width="96.9839" height="96" rx="23" stroke="url(#paint1_linear_29220_324839)" stroke-opacity="0.6" stroke-width="2"/>
</g>
<path opacity="0.5" d="M31 46C31 38.4575 31 34.6863 33.3431 32.3431C35.6863 30 39.4575 30 47 30H51C58.5425 30 62.3137 30 64.6569 32.3431C67 34.6863 67 38.4575 67 46V54C67 61.5425 67 65.3137 64.6569 67.6569C62.3137 70 58.5425 70 51 70H47C39.4575 70 35.6863 70 33.3431 67.6569C31 65.3137 31 61.5425 31 54V46Z" fill="#009FA3"/>
<path d="M58.0378 59.0026C58.3878 58.7296 58.7052 58.4122 59.3401 57.7773L67.2549 49.8625C67.4463 49.6711 67.3587 49.3416 67.103 49.2529C66.1688 48.9287 64.9535 48.3202 63.8166 47.1834C62.6798 46.0465 62.0713 44.8312 61.7471 43.897C61.6584 43.6413 61.3289 43.5537 61.1375 43.7451L53.2227 51.6599C52.5878 52.2948 52.2704 52.6122 51.9974 52.9622C51.6753 53.3751 51.3992 53.8218 51.174 54.2945C50.983 54.6952 50.841 55.1211 50.5571 55.9729L50.1902 57.0735L49.6069 58.8236L49.0599 60.4646C48.9202 60.8837 49.0293 61.3459 49.3417 61.6583C49.6541 61.9707 50.1163 62.0798 50.5354 61.9401L52.1764 61.3931L53.9265 60.8098L55.0271 60.4429L55.0272 60.4429C55.8789 60.1589 56.3048 60.017 56.7055 59.826C57.1782 59.6007 57.6249 59.3246 58.0378 59.0026Z" fill="#009FA3"/>
<path d="M69.733 47.3844C71.4223 45.6951 71.4223 42.9562 69.733 41.267C68.0438 39.5777 65.3049 39.5777 63.6156 41.267L63.3612 41.5214C63.3304 41.5522 63.315 41.5676 63.293 41.5927C63.1208 41.7896 63.0229 42.1018 63.0519 42.3618C63.0555 42.3949 63.0589 42.4138 63.0657 42.4517L63.0657 42.4517C63.1043 42.6667 63.1759 42.9811 63.306 43.3561C63.5662 44.1063 64.0577 45.091 64.9834 46.0166C65.909 46.9423 66.8937 47.4338 67.6439 47.694C68.0189 47.8241 68.3333 47.8957 68.5483 47.9343C68.5861 47.9411 68.6051 47.9445 68.6382 47.9481C68.8982 47.9771 69.2104 47.8792 69.4073 47.707C69.4324 47.685 69.4478 47.6696 69.4786 47.6388L69.733 47.3844Z" fill="#009FA3"/>
<path fill-rule="evenodd" clip-rule="evenodd" d="M39.5 44C39.5 43.1716 40.1716 42.5 41 42.5H54C54.8284 42.5 55.5 43.1716 55.5 44C55.5 44.8284 54.8284 45.5 54 45.5H41C40.1716 45.5 39.5 44.8284 39.5 44ZM39.5 52C39.5 51.1716 40.1716 50.5 41 50.5H47C47.8284 50.5 48.5 51.1716 48.5 52C48.5 52.8284 47.8284 53.5 47 53.5H41C40.1716 53.5 39.5 52.8284 39.5 52ZM39.5 60C39.5 59.1716 40.1716 58.5 41 58.5H44C44.8284 58.5 45.5 59.1716 45.5 60C45.5 60.8284 44.8284 61.5 44 61.5H41C40.1716 61.5 39.5 60.8284 39.5 60Z" fill="#009FA3"/>
<defs>
<filter id="filter0_b_29220_324839" x="-21.0763" y="-21.0763" width="141.137" height="140.153" filterUnits="userSpaceOnUse" color-interpolation-filters="sRGB">
<feFlood flood-opacity="0" result="BackgroundImageFix"/>
<feGaussianBlur in="BackgroundImageFix" stdDeviation="10.5382"/>
<feComposite in2="SourceAlpha" operator="in" result="effect1_backgroundBlur_29220_324839"/>
<feBlend mode="normal" in="SourceGraphic" in2="effect1_backgroundBlur_29220_324839" result="shape"/>
</filter>
<linearGradient id="paint0_linear_29220_324839" x1="173.5" y1="95.5" x2="5.99999" y2="11" gradientUnits="userSpaceOnUse">
<stop stop-color="#009FA3"/>
<stop offset="1" stop-color="#009FA3" stop-opacity="0"/>
</linearGradient>
<linearGradient id="paint1_linear_29220_324839" x1="38.9772" y1="46.9" x2="98.1341" y2="111.458" gradientUnits="userSpaceOnUse">
<stop stop-color="white"/>
<stop offset="1" stop-color="#F3F3F3" stop-opacity="0.42"/>
</linearGradient>
</defs>
</svg>
