<svg width="114" height="98" viewBox="0 0 114 98" fill="none" xmlns="http://www.w3.org/2000/svg">
<rect x="34.813" y="10.7708" width="79.1871" height="78.4" rx="24" fill="url(#paint0_linear_29220_324826)" fill-opacity="0.5"/>
<g filter="url(#filter0_b_29220_324826)">
<rect width="98.9839" height="98" rx="24" fill="white" fill-opacity="0.5"/>
<rect x="1" y="1" width="96.9839" height="96" rx="23" stroke="url(#paint1_linear_29220_324826)" stroke-opacity="0.6" stroke-width="2"/>
</g>
<path opacity="0.5" d="M60.933 39.1162L57.2738 35.457L57.2738 35.457C54.1827 32.3659 52.6372 30.8204 50.632 30.2453C48.6267 29.6702 46.497 30.1617 42.2375 31.1446L39.7811 31.7115C36.1976 32.5384 34.4058 32.9519 33.1789 34.1789C31.9519 35.4058 31.5384 37.1976 30.7115 40.7811L30.7115 40.7811L30.1446 43.2375C29.1617 47.497 28.6702 49.6267 29.2453 51.632C29.8204 53.6372 31.3659 55.1827 34.457 58.2738L38.1162 61.933L38.1163 61.9331C43.4942 67.311 46.1832 70 49.5246 70C52.8661 70 55.5551 67.311 60.933 61.9331L60.933 61.933L60.9331 61.933C66.311 56.5551 69 53.8661 69 50.5246C69 47.1832 66.311 44.4942 60.9331 39.1163L60.933 39.1162Z" fill="#5FBC38"/>
<path d="M47.2937 54.6569C45.9478 53.3109 45.9592 51.3798 46.7641 49.8493C46.3619 49.265 46.4205 48.459 46.9402 47.9394C47.4579 47.4216 48.2599 47.3615 48.8437 47.7589C49.5235 47.3977 50.2703 47.2066 51.0145 47.2137C51.8429 47.2215 52.5081 47.8994 52.5003 48.7277C52.4925 49.5561 51.8146 50.2213 50.9862 50.2135C50.6324 50.2102 50.1674 50.369 49.7686 50.7678C48.9935 51.5429 49.1974 52.3179 49.415 52.5355C49.6327 52.7532 50.4077 52.9571 51.1828 52.182C52.7509 50.6139 55.4583 50.0935 57.1932 51.8284C58.5391 53.1744 58.5277 55.1055 57.7228 56.636C58.1251 57.2203 58.0664 58.0263 57.5468 58.546C57.0289 59.0638 56.2266 59.1239 55.6428 58.7261C54.729 59.2118 53.6895 59.3938 52.6984 59.1901C51.887 59.0233 51.3643 58.2303 51.5311 57.4188C51.6978 56.6074 52.4908 56.0847 53.3023 56.2515C53.6566 56.3243 54.2278 56.208 54.7183 55.7175C55.4934 54.9425 55.2896 54.1674 55.0719 53.9498C54.8542 53.7321 54.0792 53.5282 53.3041 54.3033C51.736 55.8714 49.0287 56.3918 47.2937 54.6569Z" fill="#5FBC38"/>
<path d="M45.0423 46.5862C46.6044 45.0241 46.6044 42.4915 45.0423 40.9294C43.4802 39.3673 40.9475 39.3673 39.3854 40.9294C37.8233 42.4915 37.8233 45.0241 39.3854 46.5862C40.9475 48.1483 43.4802 48.1483 45.0423 46.5862Z" fill="#5FBC38"/>
<defs>
<filter id="filter0_b_29220_324826" x="-21.0763" y="-21.0763" width="141.137" height="140.153" filterUnits="userSpaceOnUse" color-interpolation-filters="sRGB">
<feFlood flood-opacity="0" result="BackgroundImageFix"/>
<feGaussianBlur in="BackgroundImageFix" stdDeviation="10.5382"/>
<feComposite in2="SourceAlpha" operator="in" result="effect1_backgroundBlur_29220_324826"/>
<feBlend mode="normal" in="SourceGraphic" in2="effect1_backgroundBlur_29220_324826" result="shape"/>
</filter>
<linearGradient id="paint0_linear_29220_324826" x1="173.5" y1="95.5" x2="5.99999" y2="11" gradientUnits="userSpaceOnUse">
<stop stop-color="#5FBC38"/>
<stop offset="1" stop-color="#5FBC38" stop-opacity="0"/>
</linearGradient>
<linearGradient id="paint1_linear_29220_324826" x1="38.9772" y1="46.9" x2="98.1341" y2="111.458" gradientUnits="userSpaceOnUse">
<stop stop-color="white"/>
<stop offset="1" stop-color="#F3F3F3" stop-opacity="0.42"/>
</linearGradient>
</defs>
</svg>
