<svg width="114" height="98" viewBox="0 0 114 98" fill="none" xmlns="http://www.w3.org/2000/svg">
<rect x="34.813" y="10.7708" width="79.1871" height="78.4" rx="24" fill="url(#paint0_linear_29220_319086)" fill-opacity="0.5"/>
<g filter="url(#filter0_b_29220_319086)">
<rect width="98.9839" height="98" rx="24" fill="white" fill-opacity="0.5"/>
<rect x="1" y="1" width="96.9839" height="96" rx="23" stroke="url(#paint1_linear_29220_319086)" stroke-opacity="0.6" stroke-width="2"/>
</g>
<path fill-rule="evenodd" clip-rule="evenodd" d="M53.0274 60L53.0158 64.0058C53.013 64.9461 53.0117 65.4163 52.7182 65.7081C52.4248 66 51.9534 66 51.0108 66H44.99C37.4288 66 33.6481 66 31.2992 63.6569C29.6818 62.0435 29.1781 59.7532 29.0212 56.0211C28.99 55.2809 28.9745 54.9109 29.1127 54.664C29.2509 54.4171 29.8027 54.1089 30.9062 53.4927C32.1317 52.8083 32.9601 51.5006 32.9601 50C32.9601 48.4994 32.1317 47.1917 30.9062 46.5073C29.8027 45.8911 29.2509 45.5829 29.1127 45.336C28.9745 45.0892 28.99 44.7191 29.0212 43.9789C29.1781 40.2468 29.6818 37.9565 31.2992 36.3431C33.6481 34 37.4288 34 44.99 34H52.0104C52.5629 34 53.0113 34.446 53.0129 34.9971L53.0274 40C53.0274 41.1046 53.925 42 55.0324 42L55.0324 46C53.925 46 53.0274 46.8954 53.0274 48V52C53.0274 53.1046 53.925 54 55.0324 54V58C53.925 58 53.0274 58.8954 53.0274 60Z" fill="#FFBC00"/>
<path opacity="0.5" d="M55.0332 57.9996C56.1405 57.9996 57.0382 58.8951 57.0382 59.9996V63.9525C57.0382 64.9157 57.0382 65.3972 57.347 65.6925C57.6558 65.9877 58.1283 65.9677 59.0732 65.9277C62.7991 65.77 65.0881 65.266 66.7017 63.6565C68.319 62.0432 68.8228 59.7529 68.9797 56.0207C69.0108 55.2806 69.0264 54.9105 68.8881 54.6636C68.7499 54.4167 68.1982 54.1086 67.0947 53.4923C65.8691 52.8079 65.0407 51.5003 65.0407 49.9996C65.0407 48.499 65.8691 47.1914 67.0947 46.507C68.1982 45.8907 68.7499 45.5826 68.8881 45.3357C69.0264 45.0888 69.0108 44.7187 68.9797 43.9786C68.8228 40.2464 68.319 37.9561 66.7017 36.3428C64.9462 34.5917 62.3913 34.1493 58.0564 34.0374C57.4972 34.023 57.0382 34.474 57.0382 35.032V39.9996C57.0382 41.1042 56.1405 41.9996 55.0332 41.9996L55.0332 45.9996C56.1405 45.9996 57.0382 46.8951 57.0382 47.9996V51.9996C57.0382 53.1042 56.1405 53.9996 55.0332 53.9996V57.9996Z" fill="#FFBC00"/>
<defs>
<filter id="filter0_b_29220_319086" x="-21.0763" y="-21.0763" width="141.137" height="140.153" filterUnits="userSpaceOnUse" color-interpolation-filters="sRGB">
<feFlood flood-opacity="0" result="BackgroundImageFix"/>
<feGaussianBlur in="BackgroundImageFix" stdDeviation="10.5382"/>
<feComposite in2="SourceAlpha" operator="in" result="effect1_backgroundBlur_29220_319086"/>
<feBlend mode="normal" in="SourceGraphic" in2="effect1_backgroundBlur_29220_319086" result="shape"/>
</filter>
<linearGradient id="paint0_linear_29220_319086" x1="173.5" y1="95.5" x2="5.99999" y2="11" gradientUnits="userSpaceOnUse">
<stop stop-color="#FFBC00"/>
<stop offset="1" stop-color="#FFBC00" stop-opacity="0"/>
</linearGradient>
<linearGradient id="paint1_linear_29220_319086" x1="38.9772" y1="46.9" x2="98.1341" y2="111.458" gradientUnits="userSpaceOnUse">
<stop stop-color="white"/>
<stop offset="1" stop-color="#F3F3F3" stop-opacity="0.42"/>
</linearGradient>
</defs>
</svg>
