<svg width="44" height="44" viewBox="0 0 44 44" fill="none" xmlns="http://www.w3.org/2000/svg">
<path d="M22.8893 9.8763L36.3701 33.0882C36.651 33.6009 36.5105 34.2068 35.9956 34.5331C35.8084 34.6263 35.668 34.6729 35.4807 34.6729H21.9999C21.5786 34.6729 21.2042 34.4399 21.0637 34.067L20.502 33.1348C20.7829 32.9483 21.1105 32.7619 21.4382 32.5755C21.719 32.389 22.0467 32.2026 22.2807 32.0161L22.6084 32.5755H33.6552L27.8042 22.5077L21.9999 12.4865L16.1956 22.4611C16.1956 22.4611 16.1956 22.5077 16.1488 22.5077L10.3446 32.5288C11.702 32.5288 13.0595 32.4356 14.3701 32.2492C16.0084 32.0161 17.5999 31.55 19.2382 30.6644C19.8467 30.3382 20.5488 29.8721 21.0637 29.4992C21.1573 29.4526 21.251 29.3594 21.2978 29.3127C23.0765 27.9144 23.7318 26.7026 23.7318 25.7704C23.7318 25.0246 23.2637 24.5119 22.6552 24.3255C22.0467 24.139 21.3446 24.2788 20.9233 24.9314C20.4552 25.6305 20.3148 26.889 20.8297 28.8466L20.6424 28.9865C20.4084 29.1729 20.1276 29.406 19.7999 29.5924C19.519 29.7788 19.285 29.9187 19.051 30.0585C18.1148 27.0755 18.3956 25.0246 19.1914 23.7661C20.1744 22.2746 21.8595 21.9017 23.2637 22.3212C24.668 22.7407 25.8382 23.9992 25.8382 25.7704C25.8382 27.3085 24.8084 29.3127 22.0467 31.3636C21.485 31.7831 20.5956 32.2958 19.9871 32.6687C18.2084 33.5543 16.4765 34.067 14.6978 34.3466C12.5914 34.6729 10.5786 34.6729 8.51905 34.6729C7.95734 34.6729 7.48926 34.2068 7.48926 33.6475C7.48926 33.4144 7.53607 33.228 7.67649 33.0416L14.3701 21.4822C14.3701 21.4822 14.3701 21.4356 14.4169 21.4356L21.0637 9.8763C21.3446 9.36359 21.9999 9.22376 22.5148 9.50342C22.6552 9.59664 22.7956 9.68986 22.8893 9.8763Z" fill="#079DA3"/>
<path d="M10.3446 32.5287C11.702 32.5287 13.0595 32.4355 14.3701 32.2491C16.0084 32.016 17.5999 31.5499 19.2382 30.6643C19.8467 30.3381 20.5488 29.872 21.0637 29.4991C21.1573 29.4525 21.251 29.3592 21.2978 29.3126C23.0765 27.9143 23.7318 26.7025 23.7318 25.7703C23.7318 25.0245 23.2637 24.5118 22.6552 24.3254C22.0467 24.1389 21.3446 24.2787 20.9233 24.9313C20.4552 25.6304 20.3148 26.8889 20.8297 28.8465L20.6424 28.9864C20.4084 29.1728 20.1276 29.4059 19.7999 29.5923C19.519 29.7787 19.285 29.9186 19.051 30.0584C18.1148 27.0754 18.3956 25.0245 19.1914 23.766C20.1744 22.2745 21.8595 21.9016 23.2637 22.3211C24.668 22.7406 25.8382 23.9991 25.8382 25.7703C25.8382 27.3084 24.8084 29.3126 22.0467 31.3635C21.485 31.783 20.5956 32.2957 19.9871 32.6686C18.2084 33.5542 16.4765 34.0669 14.6978 34.3465C12.5914 34.6728 10.5786 34.6728 8.51904 34.6728L10.3446 32.5287Z" fill="url(#paint0_linear_29334_111451)"/>
<path d="M22.6554 24.3254C22.0469 24.1389 21.3447 24.2787 20.9235 24.9313C20.4554 25.6304 20.3149 26.8889 20.8298 28.8465L20.6426 28.9864C20.4086 29.1728 20.1277 29.4059 19.8 29.5923C19.5192 29.7787 19.2852 29.9186 19.0511 30.0584C18.1149 27.0754 18.3958 25.0245 19.1915 23.766C20.1745 22.2745 21.8596 21.9016 23.2639 22.3211L22.6554 24.3254Z" fill="#055D81"/>
<path d="M22.6554 24.3254C22.0469 24.1389 21.3447 24.2787 20.9235 24.9313C20.4554 25.6304 20.3149 26.8889 20.8298 28.8465L20.6426 28.9864C20.4086 29.1728 20.1277 29.4059 19.8 29.5923C19.5192 29.7787 19.2852 29.9186 19.0511 30.0584C18.1149 27.0754 18.3958 25.0245 19.1915 23.766C20.1745 22.2745 21.8596 21.9016 23.2639 22.3211L22.6554 24.3254Z" fill="url(#paint1_linear_29334_111451)"/>
<path d="M27.8039 22.5077L33.6082 32.5289L36.3231 34.1136C36.5103 33.7874 36.5103 33.4145 36.3231 33.0882L22.889 9.87635C22.7954 9.73652 22.655 9.59669 22.5145 9.50347C21.9996 9.22381 21.3911 9.41025 21.0635 9.87635L21.9528 12.4865L27.8039 22.5077Z" fill="url(#paint2_linear_29334_111451)"/>
<path d="M33.6083 32.5754H22.5615L22.2338 32.0161C21.953 32.2026 21.6721 32.389 21.3912 32.5754C21.0636 32.7619 20.7359 32.9483 20.4551 33.1348L21.0168 34.067C21.204 34.3932 21.5317 34.6729 21.953 34.6729H35.4338C35.621 34.6729 35.8083 34.6263 35.9487 34.5331C36.0891 34.4398 36.2295 34.3 36.3232 34.1602L33.6083 32.5754Z" fill="url(#paint3_linear_29334_111451)"/>
<defs>
<linearGradient id="paint0_linear_29334_111451" x1="11.0064" y1="30.6499" x2="17.8422" y2="28.448" gradientUnits="userSpaceOnUse">
<stop stop-color="#079DA3"/>
<stop offset="1" stop-color="#055D81"/>
</linearGradient>
<linearGradient id="paint1_linear_29334_111451" x1="19.7944" y1="27.0602" x2="20.7524" y2="24.3533" gradientUnits="userSpaceOnUse">
<stop stop-color="#212952"/>
<stop offset="1" stop-color="#055D81"/>
</linearGradient>
<linearGradient id="paint2_linear_29334_111451" x1="30.1756" y1="24.5669" x2="23.504" y2="12.9528" gradientUnits="userSpaceOnUse">
<stop stop-color="#055D81"/>
<stop offset="1" stop-color="#079DA3"/>
</linearGradient>
<linearGradient id="paint3_linear_29334_111451" x1="23.0928" y1="33.3445" x2="32.5988" y2="33.3445" gradientUnits="userSpaceOnUse">
<stop stop-color="#212952"/>
<stop offset="1" stop-color="#055D81"/>
</linearGradient>
</defs>
</svg>
